<svg xmlns="http://www.w3.org/2000/svg" xmlns:xlink="http://www.w3.org/1999/xlink" width="488" zoomAndPan="magnify" viewBox="0 0 366 416.99999" height="556" preserveAspectRatio="xMidYMid meet" version="1.0"><defs><clipPath id="854df0a6f7"><path d="M 224 101 L 365.25 101 L 365.25 250 L 224 250 Z M 224 101 " clip-rule="nonzero"/></clipPath><clipPath id="e4e059b3d1"><path d="M 116 217 L 307 217 L 307 416.25 L 116 416.25 Z M 116 217 " clip-rule="nonzero"/></clipPath><clipPath id="ac72ca7bf1"><path d="M 224 101 L 365.25 101 L 365.25 250 L 224 250 Z M 224 101 " clip-rule="nonzero"/></clipPath><clipPath id="0c36c7e6db"><path d="M 116 217 L 307 217 L 307 416.25 L 116 416.25 Z M 116 217 " clip-rule="nonzero"/></clipPath></defs><path fill="#ff0000" d="M 0.0234375 131.992188 C 19.003906 132.242188 121.914062 139.984375 125.910156 263.625 C 130.15625 139.984375 233.066406 132.242188 252.050781 131.992188 C 233.066406 131.492188 130.15625 123.75 125.910156 0.109375 C 121.914062 123.75 19.007812 131.492188 0.0234375 131.992188 Z M 0.0234375 131.992188 " fill-opacity="1" fill-rule="evenodd"/><g clip-path="url(#854df0a6f7)"><path fill="#ff0000" d="M 224.324219 175.453125 C 235.0625 175.703125 292.761719 179.949219 295.011719 249.390625 C 297.261719 179.949219 354.960938 175.703125 365.449219 175.453125 C 354.960938 175.203125 297.261719 170.957031 295.011719 101.769531 C 292.761719 170.957031 235.0625 175.203125 224.324219 175.453125 Z M 224.324219 175.453125 " fill-opacity="1" fill-rule="evenodd"/></g><g clip-path="url(#e4e059b3d1)"><path fill="#ff0000" d="M 116.167969 317.078125 C 130.65625 317.328125 208.335938 323.074219 211.335938 416.492188 C 214.582031 323.074219 292.265625 317.328125 306.5 317.078125 C 292.261719 316.578125 214.582031 310.835938 211.335938 217.417969 C 208.335938 310.835938 130.65625 316.578125 116.167969 317.078125 Z M 116.167969 317.078125 " fill-opacity="1" fill-rule="evenodd"/></g><path fill="#ff0000" d="M 0.0234375 131.992188 C 19.003906 132.242188 121.914062 139.984375 125.910156 263.625 C 130.15625 139.984375 233.066406 132.242188 252.050781 131.992188 C 233.066406 131.492188 130.15625 123.75 125.910156 0.109375 C 121.914062 123.75 19.007812 131.492188 0.0234375 131.992188 Z M 0.0234375 131.992188 " fill-opacity="1" fill-rule="evenodd"/><g clip-path="url(#ac72ca7bf1)"><path fill="#ff0000" d="M 224.324219 175.453125 C 235.0625 175.703125 292.761719 179.949219 295.011719 249.390625 C 297.261719 179.949219 354.960938 175.703125 365.449219 175.453125 C 354.960938 175.203125 297.261719 170.957031 295.011719 101.769531 C 292.761719 170.957031 235.0625 175.203125 224.324219 175.453125 Z M 224.324219 175.453125 " fill-opacity="1" fill-rule="evenodd"/></g><g clip-path="url(#0c36c7e6db)"><path fill="#ff0000" d="M 116.167969 317.078125 C 130.65625 317.328125 208.335938 323.074219 211.335938 416.492188 C 214.582031 323.074219 292.265625 317.328125 306.5 317.078125 C 292.261719 316.578125 214.582031 310.835938 211.335938 217.417969 C 208.335938 310.835938 130.65625 316.578125 116.167969 317.078125 Z M 116.167969 317.078125 " fill-opacity="1" fill-rule="evenodd"/></g></svg>