<svg xmlns="http://www.w3.org/2000/svg" xmlns:xlink="http://www.w3.org/1999/xlink" width="1480" zoomAndPan="magnify" viewBox="0 0 1110 528.000001" height="704" preserveAspectRatio="xMidYMid meet" version="1.0"><defs><clipPath id="d86267bbf3"><path d="M 760 4 L 1101 4 L 1101 526.890625 L 760 526.890625 Z M 760 4 " clip-rule="nonzero"/></clipPath><clipPath id="430a38129e"><path d="M 9 11 L 400 11 L 400 526.890625 L 9 526.890625 Z M 9 11 " clip-rule="nonzero"/></clipPath><clipPath id="af2d8cf4c7"><path d="M 760 1 L 1101 1 L 1101 524.757812 L 760 524.757812 Z M 760 1 " clip-rule="nonzero"/></clipPath><clipPath id="62809725bc"><path d="M 9 9 L 400 9 L 400 524.757812 L 9 524.757812 Z M 9 9 " clip-rule="nonzero"/></clipPath></defs><g clip-path="url(#d86267bbf3)"><path fill="#000000" d="M 1082.917969 184.636719 C 1071.019531 198.578125 1055.855469 205.203125 1039.78125 212.917969 C 1029.757812 217.726562 1025.0625 222.242188 1022.464844 233.28125 C 1020.074219 243.441406 1018.105469 253.679688 1015.925781 263.886719 C 997.433594 350.726562 978.875 437.546875 960.25 524.359375 C 960.070312 525.171875 959.867188 525.921875 959.582031 526.621094 L 760.003906 526.621094 C 778.648438 465.960938 823.316406 331.222656 831.753906 295.210938 C 836.917969 273.132812 846.003906 248.117188 845.273438 225.253906 C 844.554688 202.757812 824.816406 185.4375 817.65625 164.917969 C 806.09375 131.949219 820.355469 89.839844 854.261719 76.648438 C 873.398438 69.160156 895.023438 72.640625 911.3125 83.761719 C 919.722656 44.695312 938.597656 7.757812 984.1875 4.277344 C 1009.6875 2.328125 1032.699219 18.21875 1040.074219 42.714844 C 1043.835938 55.136719 1043.65625 68.023438 1041.394531 80.746094 C 1057.539062 79.113281 1074.710938 84.675781 1085.867188 97.5 C 1108.050781 122.992188 1103.921875 159.976562 1082.917969 184.636719 " fill-opacity="1" fill-rule="nonzero"/></g><path fill="#d7a790" d="M 987.828125 189.457031 C 984.898438 187.875 973.882812 186.554688 972.339844 183.964844 C 971.449219 182.476562 974.410156 170.359375 974.644531 167.953125 C 975.070312 163.652344 975.851562 159.207031 975.230469 154.894531 C 972.960938 139.0625 955.324219 138.699219 944.488281 146.289062 C 936.214844 152.09375 933 162.261719 927.167969 170.054688 C 923.503906 170.316406 919.773438 170.214844 916.953125 170.582031 C 908.769531 171.648438 900.480469 174.152344 894.691406 180.40625 C 884.007812 191.921875 886.878906 210.796875 901.78125 216.84375 C 908.71875 219.664062 916.585938 219.167969 923.878906 218.265625 C 934.0625 216.984375 940.199219 214.53125 949.550781 219.980469 C 963.324219 228.015625 980.515625 236.984375 993.824219 222.394531 C 1003.582031 211.699219 1000.152344 196.152344 987.828125 189.457031 " fill-opacity="1" fill-rule="nonzero"/><path fill="#d7a790" d="M 905.328125 118.414062 C 898.117188 106.15625 880.136719 102.382812 870.804688 114.507812 C 867.242188 119.136719 866.027344 125.191406 868.074219 130.640625 C 868.144531 130.925781 868.1875 131.179688 868.257812 131.464844 C 869.050781 134.246094 870.417969 137.097656 871.992188 139.519531 C 876.28125 146.15625 882.253906 150.785156 890.316406 151.34375 C 898.421875 151.902344 905.746094 146.117188 908.097656 138.566406 C 910.148438 131.941406 908.808594 124.332031 905.328125 118.414062 " fill-opacity="1" fill-rule="nonzero"/><path fill="#d7a790" d="M 1003.539062 86.816406 C 1003.53125 86.59375 1003.550781 86.390625 1003.539062 86.175781 C 1003.296875 83.050781 1002.222656 80.199219 1000.496094 77.804688 C 999.230469 75.898438 997.554688 74.3125 995.425781 73.25 C 995.285156 73.15625 995.140625 73.046875 994.988281 72.964844 C 990.742188 70.660156 985.667969 70.296875 981.105469 71.765625 C 975.960938 73.429688 972.796875 77.410156 969.796875 81.628906 C 964.492188 89.128906 961.296875 99.378906 965.890625 108.035156 C 970.890625 117.460938 981.652344 118.890625 990.242188 113.605469 C 996.5 109.738281 1001.167969 103.203125 1002.953125 96.089844 C 1003.660156 93.257812 1003.886719 90.003906 1003.539062 86.816406 " fill-opacity="1" fill-rule="nonzero"/><path fill="#d7a790" d="M 1049.253906 144.117188 C 1045.976562 141.207031 1041.929688 140.230469 1037.902344 140.566406 C 1028.023438 140.140625 1017.210938 146.238281 1012.425781 154.46875 C 1008.296875 161.550781 1008.84375 170.550781 1014.929688 176.316406 C 1020.933594 182.007812 1029.789062 181.695312 1036.769531 178.183594 C 1048.5625 172.246094 1062.449219 155.867188 1049.253906 144.117188 " fill-opacity="1" fill-rule="nonzero"/><g clip-path="url(#430a38129e)"><path fill="#000000" d="M 399.636719 526.621094 L 192.667969 526.621094 C 192.566406 526.386719 192.484375 526.15625 192.414062 525.921875 C 164.238281 441.699219 136.144531 357.484375 108.128906 273.261719 C 104.832031 263.371094 101.71875 253.394531 98.210938 243.570312 C 94.394531 232.875 89.253906 228.917969 78.765625 225.253906 C 61.910156 219.359375 46.128906 214.480469 32.75 201.9375 C 9.125 179.777344 0.921875 143.488281 20.132812 115.683594 C 29.789062 101.710938 46.199219 94.253906 62.457031 94.070312 C 58.824219 81.679688 57.183594 68.90625 59.546875 56.152344 C 64.140625 30.976562 85.257812 12.609375 110.804688 11.726562 C 156.5 10.121094 179.351562 44.695312 192.078125 82.59375 C 207.007812 69.738281 228.117188 63.894531 247.976562 69.160156 C 283.128906 78.546875 301.984375 118.808594 294.164062 152.835938 C 289.316406 174.03125 271.628906 193.433594 273.421875 215.859375 C 275.238281 238.691406 287.054688 262.539062 294.640625 283.886719 C 307.695312 320.621094 375.984375 470.617188 399.636719 526.621094 " fill-opacity="1" fill-rule="nonzero"/></g><path fill="#d7a790" d="M 118.484375 217.230469 C 131.386719 232.1875 148.8125 223.691406 162.808594 216.042969 C 172.300781 210.847656 178.375 213.476562 188.519531 215.039062 C 195.78125 216.144531 203.632812 216.863281 210.652344 214.226562 C 225.703125 208.582031 229.101562 189.8125 218.746094 178 C 213.125 171.585938 204.910156 168.847656 196.765625 167.558594 C 193.957031 167.113281 190.214844 167.113281 186.5625 166.757812 C 180.953125 158.800781 178.023438 148.550781 169.90625 142.515625 C 159.289062 134.628906 141.640625 134.507812 138.933594 150.265625 C 138.191406 154.558594 138.859375 159.035156 139.15625 163.335938 C 139.328125 165.742188 141.953125 177.949219 141.019531 179.410156 C 139.410156 181.957031 128.363281 182.972656 125.390625 184.472656 C 112.886719 190.824219 109.019531 206.269531 118.484375 217.230469 " fill-opacity="1" fill-rule="nonzero"/><path fill="#d7a790" d="M 206.503906 135.808594 C 208.640625 143.417969 215.804688 149.40625 223.917969 149.070312 C 231.992188 148.726562 238.085938 144.28125 242.558594 137.765625 C 244.203125 135.371094 245.644531 132.570312 246.515625 129.808594 C 246.605469 129.535156 246.648438 129.261719 246.71875 129 C 248.917969 123.601562 247.875 117.511719 244.4375 112.78125 C 235.4375 100.402344 217.363281 103.679688 209.820312 115.734375 C 206.175781 121.550781 204.625 129.128906 206.503906 135.808594 " fill-opacity="1" fill-rule="nonzero"/><path fill="#d7a790" d="M 112.519531 81.425781 C 112.53125 81.214844 112.519531 81.023438 112.539062 80.796875 C 112.867188 77.683594 114.011719 74.863281 115.816406 72.507812 C 117.136719 70.640625 118.851562 69.097656 121 68.09375 C 121.152344 68.003906 121.292969 67.910156 121.445312 67.832031 C 125.765625 65.636719 130.839844 65.425781 135.363281 67.019531 C 140.441406 68.816406 143.515625 72.882812 146.386719 77.1875 C 151.488281 84.828125 154.398438 95.167969 149.570312 103.691406 C 144.308594 112.976562 133.503906 114.101562 125.066406 108.570312 C 118.921875 104.554688 114.4375 97.875 112.84375 90.722656 C 112.214844 87.871094 112.085938 84.613281 112.519531 81.425781 " fill-opacity="1" fill-rule="nonzero"/><path fill="#d7a790" d="M 76.777344 171.851562 C 83.65625 175.554688 92.5 176.113281 98.65625 170.582031 C 104.894531 164.992188 105.695312 156.011719 101.769531 148.816406 C 97.207031 140.453125 86.574219 134.070312 76.6875 134.214844 C 72.660156 133.765625 68.59375 134.628906 65.246094 137.449219 C 51.726562 148.835938 65.144531 165.589844 76.777344 171.851562 " fill-opacity="1" fill-rule="nonzero"/><g clip-path="url(#af2d8cf4c7)"><path fill="#000000" d="M 1083.1875 182.503906 C 1071.289062 196.445312 1056.125 203.070312 1040.050781 210.78125 C 1030.03125 215.59375 1025.332031 220.109375 1022.738281 231.148438 C 1020.34375 241.304688 1018.375 251.542969 1016.195312 261.753906 C 997.707031 348.59375 979.144531 435.414062 960.523438 522.226562 C 960.339844 523.035156 960.136719 523.789062 959.851562 524.488281 L 760.277344 524.488281 C 778.917969 463.828125 823.585938 329.089844 832.027344 293.078125 C 837.1875 270.996094 846.277344 245.984375 845.546875 223.121094 C 844.824219 200.625 825.089844 183.304688 817.925781 162.785156 C 806.363281 129.816406 820.625 87.707031 854.53125 74.515625 C 873.671875 67.027344 895.296875 70.507812 911.585938 81.628906 C 919.992188 42.558594 938.867188 5.625 984.460938 2.144531 C 1009.957031 0.195312 1032.972656 16.085938 1040.34375 40.582031 C 1044.109375 53.003906 1043.925781 65.890625 1041.664062 78.613281 C 1057.808594 76.980469 1074.980469 82.539062 1086.140625 95.367188 C 1108.320312 120.855469 1104.191406 157.84375 1083.1875 182.503906 " fill-opacity="1" fill-rule="nonzero"/></g><path fill="#d7a790" d="M 988.101562 187.324219 C 985.167969 185.738281 974.152344 184.421875 972.613281 181.832031 C 971.71875 180.339844 974.679688 168.226562 974.914062 165.820312 C 975.339844 161.519531 976.121094 157.074219 975.503906 152.761719 C 973.230469 136.929688 955.59375 136.566406 944.761719 144.15625 C 936.484375 149.960938 933.269531 160.128906 927.4375 167.921875 C 923.777344 168.183594 920.042969 168.082031 917.222656 168.449219 C 909.039062 169.515625 900.753906 172.019531 894.960938 178.269531 C 884.28125 189.789062 887.152344 208.664062 902.050781 214.710938 C 908.988281 217.53125 916.859375 217.035156 924.152344 216.128906 C 934.335938 214.851562 940.46875 212.394531 949.820312 217.84375 C 963.59375 225.882812 980.789062 234.851562 994.09375 220.261719 C 1003.851562 209.566406 1000.421875 194.019531 988.101562 187.324219 " fill-opacity="1" fill-rule="nonzero"/><path fill="#d7a790" d="M 905.601562 116.28125 C 898.390625 104.023438 880.40625 100.25 871.074219 112.375 C 867.515625 117 866.296875 123.058594 868.347656 128.507812 C 868.417969 128.792969 868.457031 129.046875 868.527344 129.332031 C 869.320312 132.109375 870.6875 134.960938 872.261719 137.386719 C 876.550781 144.023438 882.527344 148.652344 890.589844 149.207031 C 898.691406 149.765625 906.015625 143.984375 908.367188 136.433594 C 910.417969 129.808594 909.078125 122.195312 905.601562 116.28125 " fill-opacity="1" fill-rule="nonzero"/><path fill="#d7a790" d="M 1003.8125 84.683594 C 1003.800781 84.457031 1003.820312 84.257812 1003.8125 84.042969 C 1003.566406 80.917969 1002.492188 78.066406 1000.769531 75.671875 C 999.5 73.761719 997.828125 72.179688 995.695312 71.113281 C 995.554688 71.023438 995.414062 70.914062 995.261719 70.832031 C 991.011719 68.527344 985.941406 68.164062 981.375 69.632812 C 976.234375 71.296875 973.070312 75.277344 970.066406 79.496094 C 964.761719 86.996094 961.566406 97.246094 966.160156 105.898438 C 971.160156 115.328125 981.921875 116.757812 990.515625 111.472656 C 996.773438 107.605469 1001.4375 101.070312 1003.222656 93.957031 C 1003.933594 91.125 1004.15625 87.867188 1003.8125 84.683594 " fill-opacity="1" fill-rule="nonzero"/><path fill="#d7a790" d="M 1049.523438 141.984375 C 1046.246094 139.070312 1042.199219 138.097656 1038.175781 138.433594 C 1028.296875 138.007812 1017.484375 144.105469 1012.695312 152.335938 C 1008.566406 159.417969 1009.117188 168.417969 1015.203125 174.179688 C 1021.207031 179.875 1030.058594 179.558594 1037.039062 176.046875 C 1048.835938 170.113281 1062.71875 153.734375 1049.523438 141.984375 " fill-opacity="1" fill-rule="nonzero"/><g clip-path="url(#62809725bc)"><path fill="#000000" d="M 399.910156 524.488281 L 192.9375 524.488281 C 192.835938 524.253906 192.757812 524.019531 192.683594 523.789062 C 164.507812 439.566406 136.414062 355.351562 108.398438 271.128906 C 105.101562 261.234375 101.988281 251.261719 98.480469 241.4375 C 94.667969 230.742188 89.523438 226.785156 79.035156 223.121094 C 62.179688 217.226562 46.398438 212.34375 33.019531 199.804688 C 9.398438 177.640625 1.191406 141.355469 20.402344 113.550781 C 30.058594 99.578125 46.46875 92.121094 62.726562 91.9375 C 59.097656 79.546875 57.453125 66.773438 59.816406 54.015625 C 64.410156 28.839844 85.527344 10.476562 111.078125 9.589844 C 156.769531 7.988281 179.621094 42.558594 192.351562 80.460938 C 207.28125 67.605469 228.386719 61.757812 248.246094 67.027344 C 283.402344 76.410156 302.253906 116.675781 294.4375 150.699219 C 289.585938 171.898438 271.898438 191.300781 273.695312 213.726562 C 275.507812 236.558594 287.324219 260.402344 294.914062 281.753906 C 307.964844 318.488281 376.257812 468.484375 399.910156 524.488281 " fill-opacity="1" fill-rule="nonzero"/></g><path fill="#d7a790" d="M 118.753906 215.09375 C 131.65625 230.050781 149.082031 221.558594 163.078125 213.910156 C 172.570312 208.714844 178.648438 211.339844 188.789062 212.902344 C 196.050781 214.011719 203.902344 214.730469 210.921875 212.09375 C 225.972656 206.449219 229.371094 187.675781 219.015625 175.867188 C 213.394531 169.453125 205.179688 166.714844 197.035156 165.425781 C 194.226562 164.976562 190.484375 164.976562 186.832031 164.621094 C 181.222656 156.667969 178.292969 146.417969 170.179688 140.378906 C 159.558594 132.496094 141.910156 132.375 139.203125 148.132812 C 138.460938 152.425781 139.132812 156.902344 139.425781 161.203125 C 139.597656 163.609375 142.226562 175.816406 141.292969 177.277344 C 139.679688 179.824219 128.632812 180.839844 125.664062 182.339844 C 113.15625 188.691406 109.292969 204.136719 118.753906 215.09375 " fill-opacity="1" fill-rule="nonzero"/><path fill="#d7a790" d="M 206.773438 133.671875 C 208.914062 141.285156 216.074219 147.269531 224.1875 146.9375 C 232.261719 146.589844 238.355469 142.144531 242.832031 135.632812 C 244.472656 133.238281 245.914062 130.4375 246.785156 127.675781 C 246.878906 127.402344 246.917969 127.128906 246.988281 126.863281 C 249.191406 121.464844 248.144531 115.378906 244.707031 110.648438 C 235.710938 98.269531 217.636719 101.546875 210.089844 113.601562 C 206.449219 119.417969 204.898438 126.996094 206.773438 133.671875 " fill-opacity="1" fill-rule="nonzero"/><path fill="#d7a790" d="M 112.792969 79.292969 C 112.800781 79.082031 112.792969 78.886719 112.8125 78.664062 C 113.136719 75.550781 114.28125 72.726562 116.085938 70.375 C 117.40625 68.507812 119.121094 66.964844 121.269531 65.960938 C 121.421875 65.867188 121.566406 65.777344 121.71875 65.695312 C 126.039062 63.503906 131.109375 63.292969 135.632812 64.882812 C 140.714844 66.679688 143.789062 70.75 146.65625 75.050781 C 151.757812 82.691406 154.671875 93.035156 149.84375 101.558594 C 144.578125 110.84375 133.777344 111.96875 125.339844 106.4375 C 119.191406 102.417969 114.707031 95.742188 113.117188 88.589844 C 112.488281 85.738281 112.355469 82.480469 112.792969 79.292969 " fill-opacity="1" fill-rule="nonzero"/><path fill="#d7a790" d="M 77.050781 169.714844 C 83.925781 173.421875 92.769531 173.980469 98.925781 168.449219 C 105.164062 162.855469 105.964844 153.875 102.039062 146.683594 C 97.476562 138.320312 86.847656 131.9375 76.957031 132.082031 C 72.929688 131.632812 68.863281 132.496094 65.515625 135.316406 C 51.996094 146.703125 65.414062 163.457031 77.050781 169.714844 " fill-opacity="1" fill-rule="nonzero"/></svg>