<?xml version="1.0" encoding="UTF-8" standalone="no"?>
<!-- Created with Inkscape (http://www.inkscape.org/) -->

<svg
   width="25.096684mm"
   height="25.096691mm"
   viewBox="0 0 25.096684 25.096691"
   version="1.1"
   id="svg1"
   xml:space="preserve"
   inkscape:version="1.4.2 (f4327f4, 2025-05-13)"
   sodipodi:docname="CHAT_WIZARD.svg"
   xmlns:inkscape="http://www.inkscape.org/namespaces/inkscape"
   xmlns:sodipodi="http://sodipodi.sourceforge.net/DTD/sodipodi-0.dtd"
   xmlns="http://www.w3.org/2000/svg"
   xmlns:svg="http://www.w3.org/2000/svg"><sodipodi:namedview
     id="namedview1"
     pagecolor="#ffffff"
     bordercolor="#000000"
     borderopacity="0.25"
     inkscape:showpageshadow="2"
     inkscape:pageopacity="0.0"
     inkscape:pagecheckerboard="0"
     inkscape:deskcolor="#d1d1d1"
     inkscape:document-units="mm"
     inkscape:zoom="2.7545174"
     inkscape:cx="375.7464"
     inkscape:cy="-448.89896"
     inkscape:window-width="1920"
     inkscape:window-height="991"
     inkscape:window-x="-9"
     inkscape:window-y="-9"
     inkscape:window-maximized="1"
     inkscape:current-layer="layer1"><inkscape:page
       x="0"
       y="0"
       width="25.096684"
       height="25.096691"
       id="page2"
       margin="0"
       bleed="0" /></sodipodi:namedview><defs
     id="defs1" /><g
     inkscape:label="שכבה 1"
     inkscape:groupmode="layer"
     id="layer1"
     transform="translate(-97.096937,137.50541)"><g
       id="g51"
       transform="matrix(2.8532819,0,0,2.8532819,-392.3493,-564.92427)"><circle
         style="fill:#3f236d;fill-opacity:1;stroke:none;stroke-width:0.499999;stroke-dasharray:none;stroke-opacity:1"
         id="circle34"
         cx="175.93585"
         cy="154.1969"
         r="4.3978634" /><path
         style="fill:#ffffff;fill-opacity:1;stroke-width:0.0415846"
         d="m 176.86443,152.48607 c -0.007,-0.004 -0.0252,-0.057 -0.0408,-0.11725 -0.0802,-0.31017 -0.21007,-0.44024 -0.52012,-0.52096 -0.18665,-0.0447 -0.10695,-0.0821 0.0363,-0.12213 0.27989,-0.0776 0.40626,-0.21123 0.48391,-0.5115 0.0156,-0.0604 0.0324,-0.11378 0.0372,-0.11864 0.0223,-0.0223 0.0424,0.012 0.0747,0.12758 0.0636,0.22718 0.13592,0.33906 0.27039,0.41847 0.0553,0.0326 0.17167,0.0742 0.32476,0.11612 0.0351,0.01 0.0468,0.0182 0.0468,0.0347 0,0.012 -0.007,0.0239 -0.0137,0.0261 -0.008,0.003 -0.0656,0.0179 -0.12918,0.0348 -0.28359,0.0752 -0.40813,0.1942 -0.4881,0.46657 -0.0151,0.0514 -0.0306,0.10921 -0.0345,0.12837 -0.008,0.0362 -0.0262,0.0512 -0.0476,0.0379 z m 0.48864,-1.08252 c -0.0245,-0.069 -0.0672,-0.1107 -0.13289,-0.13013 -0.0273,-0.009 -0.0497,-0.0174 -0.0497,-0.0206 0,-0.003 0.0243,-0.0146 0.054,-0.0252 0.0641,-0.0228 0.11631,-0.0776 0.13307,-0.13991 0.007,-0.0243 0.0157,-0.0441 0.0204,-0.0441 0.005,0 0.0146,0.0241 0.0222,0.0535 0.017,0.0663 0.0561,0.10522 0.13262,0.13218 0.0628,0.0222 0.0626,0.0231 -0.009,0.0453 -0.058,0.0182 -0.11936,0.0831 -0.12947,0.13702 -0.0106,0.0572 -0.0198,0.0555 -0.0423,-0.009 z"
         id="path35"
         sodipodi:nodetypes="ssssssssssssssssssscsssscsss" /><path
         style="fill:#000000;fill-opacity:1;stroke-width:0.618995"
         d="m 175.76109,157.43821 c -0.52646,-0.0258 -1.01891,-0.14953 -1.43268,-0.35998 -0.28822,-0.14658 -0.46161,-0.27061 -0.67133,-0.48017 -0.17681,-0.17671 -0.29362,-0.33697 -0.39265,-0.53876 -0.24389,-0.49686 -0.27105,-1.00684 -0.0862,-1.61899 0.0381,-0.1262 0.0462,-0.17716 0.0902,-0.57142 0.064,-0.5724 0.10855,-0.89844 0.17084,-1.25005 0.0615,-0.34698 0.13278,-0.66511 0.17379,-0.77589 0.0448,-0.12112 0.15782,-0.15938 0.27151,-0.0919 0.0582,0.0345 0.21125,0.18639 0.41945,0.41618 0.34607,0.38192 0.4913,0.55142 0.62253,0.72654 0.0435,0.0581 0.082,0.10557 0.0853,0.10557 0.004,0 0.0355,-0.006 0.0713,-0.0123 0.44277,-0.0835 0.95866,-0.11262 1.39425,-0.0786 0.21036,0.0164 0.53184,0.0617 0.72258,0.10191 l 0.0559,0.0117 0.13852,-0.15842 c 0.18043,-0.20633 0.55707,-0.58545 0.60566,-0.60963 0.0476,-0.0237 0.11984,-0.024 0.1655,-6.2e-4 0.0559,0.0285 0.073,0.0615 0.1209,0.23352 0.0789,0.28313 0.19623,0.83367 0.30243,1.41923 0.0459,0.25345 0.0595,0.30723 0.12758,0.50583 0.10855,0.31675 0.15322,0.58594 0.14347,0.86397 -0.0247,0.70564 -0.41718,1.31452 -1.11013,1.72226 -0.34623,0.20373 -0.79881,0.3511 -1.26001,0.41027 -0.22082,0.0283 -0.51371,0.0403 -0.72875,0.0298 z m -0.71782,-1.93857 c 0.16687,-0.0427 0.29666,-0.14457 0.38815,-0.30468 0.0547,-0.0958 0.0781,-0.17745 0.0831,-0.29091 0.004,-0.114 -0.0132,-0.20242 -0.0647,-0.3134 -0.10457,-0.22501 -0.28648,-0.35797 -0.52107,-0.38091 -0.26596,-0.026 -0.50966,0.10335 -0.63069,0.33485 -0.093,0.17781 -0.10424,0.32676 -0.0393,0.52055 0.0391,0.11653 0.0836,0.18816 0.17315,0.27868 0.0663,0.067 0.0899,0.0849 0.14905,0.11317 0.0639,0.0307 0.14665,0.0538 0.22356,0.063 0.0526,0.006 0.176,-0.004 0.23867,-0.0204 z m -0.27015,-0.33608 c -0.11381,-0.0349 -0.19955,-0.17942 -0.19028,-0.32096 0.003,-0.044 0.0111,-0.0743 0.0331,-0.12154 0.0365,-0.0787 0.0775,-0.12465 0.13773,-0.15423 0.0404,-0.0199 0.0565,-0.023 0.11727,-0.0227 0.0593,3.4e-4 0.077,0.004 0.11233,0.0221 0.0873,0.0453 0.16014,0.16537 0.1674,0.27625 0.009,0.13121 -0.0634,0.26561 -0.16604,0.31027 -0.0565,0.0245 -0.1505,0.0292 -0.2114,0.0111 z m 2.68861,0.33623 c 0.18267,-0.046 0.33629,-0.177 0.41861,-0.3569 0.1144,-0.25001 0.0675,-0.53181 -0.12186,-0.73256 -0.13051,-0.13832 -0.28176,-0.20263 -0.4769,-0.20269 -0.43883,-1.8e-4 -0.73616,0.42937 -0.59959,0.86619 0.0768,0.24555 0.26455,0.40886 0.50923,0.44293 0.0714,0.01 0.19425,0.002 0.27051,-0.017 z m -0.25725,-0.33359 c -0.10756,-0.0302 -0.18513,-0.14321 -0.19496,-0.28385 -0.004,-0.065 0.007,-0.11296 0.048,-0.19362 0.0584,-0.11577 0.18601,-0.17307 0.3071,-0.13787 0.0594,0.0173 0.095,0.0419 0.13318,0.0925 0.0684,0.0903 0.0953,0.20722 0.0688,0.29819 -0.0315,0.10844 -0.0844,0.18033 -0.15563,0.21125 -0.053,0.023 -0.15,0.0293 -0.20662,0.0134 z"
         id="path36"
         sodipodi:nodetypes="csssccsscssscsscsscscscsscccscsssssscccscssccscssssssssssscsssssss" /><path
         style="fill:#ffcb1b;fill-opacity:1;stroke:none;stroke-width:0.0275304;stroke-dasharray:none;stroke-opacity:1"
         d="m 669.66565,587.76635 c -0.42979,-0.0781 -0.81261,-0.24823 -1.11316,-0.49483 -0.65348,-0.53616 -1.0086,-1.52503 -0.85798,-2.38915 0.14146,-0.81159 0.59965,-1.44917 1.28,-1.78114 0.39251,-0.19152 0.63178,-0.24561 1.08657,-0.24561 0.77853,0 1.37511,0.27147 1.86042,0.84655 0.21549,0.25535 0.44849,0.69912 0.53271,1.01459 0.0762,0.28528 0.0743,0.93121 -0.004,1.21936 -0.23606,0.87414 -0.90042,1.55097 -1.73086,1.76336 -0.27606,0.0706 -0.83752,0.10622 -1.05419,0.0669 z m 0.7471,-1.31729 c 0.5479,-0.1522 0.88571,-0.92948 0.67284,-1.54819 -0.0773,-0.2248 -0.26477,-0.51362 -0.39983,-0.61614 -0.2847,-0.2161 -0.70437,-0.25851 -1.02172,-0.10325 -0.47203,0.23095 -0.76043,0.89033 -0.62338,1.4253 0.10268,0.40079 0.3068,0.67652 0.59833,0.80821 0.16163,0.073 0.56899,0.091 0.77376,0.0341 z"
         id="path37"
         transform="scale(0.26458333)" /><path
         style="fill:#ffcb1b;fill-opacity:1;stroke:none;stroke-width:0.0275304;stroke-dasharray:none;stroke-opacity:1"
         d="m 660.4653,587.74964 c -0.58641,-0.1328 -0.81692,-0.25886 -1.19787,-0.65508 -0.33636,-0.34984 -0.47599,-0.56575 -0.61084,-0.94456 -0.26504,-0.74451 -0.24063,-1.30162 0.086,-1.9627 0.32585,-0.65951 0.84765,-1.08937 1.54259,-1.27081 0.35164,-0.0918 0.89602,-0.0919 1.24461,-2.4e-4 0.8798,0.23136 1.55715,0.97588 1.77381,1.94972 0.0666,0.29911 0.0489,0.89478 -0.0345,1.16641 -0.19665,0.64017 -0.67276,1.22346 -1.21903,1.49346 -0.44603,0.22045 -1.1565,0.32078 -1.58476,0.2238 z m 0.8479,-1.32151 c 0.44326,-0.15104 0.76894,-0.80757 0.66066,-1.33182 -0.0822,-0.39818 -0.33144,-0.76234 -0.62008,-0.90618 -0.22753,-0.11338 -0.6242,-0.11879 -0.85234,-0.0116 -0.30583,0.14366 -0.57302,0.52473 -0.65105,0.92852 -0.10138,0.52465 0.22516,1.17067 0.67257,1.3306 0.16743,0.0598 0.60204,0.0546 0.79024,-0.01 z"
         id="path38"
         transform="scale(0.26458333)" /><path
         style="fill:#000000;fill-opacity:1;stroke:none;stroke-width:0.0275304;stroke-dasharray:none;stroke-opacity:1"
         d="m 669.79036,586.44864 c -0.48528,-0.12243 -0.79299,-0.62777 -0.75383,-1.23801 0.0122,-0.18946 0.039,-0.28555 0.13287,-0.47546 0.25702,-0.52003 0.71063,-0.73411 1.2292,-0.58011 0.46375,0.13772 0.83053,0.83662 0.71997,1.37191 -0.045,0.21809 -0.18034,0.50787 -0.30787,0.65944 -0.1325,0.15746 -0.38819,0.2655 -0.6632,0.28022 -0.12967,0.007 -0.29038,-10e-4 -0.35714,-0.018 z"
         id="path39"
         transform="scale(0.26458333)" /><path
         style="fill:#000000;fill-opacity:1;stroke:none;stroke-width:0.0275304;stroke-dasharray:none;stroke-opacity:1"
         d="m 660.58427,586.4389 c -0.38711,-0.10949 -0.69425,-0.54884 -0.72564,-1.038 -0.036,-0.56141 0.33009,-1.13562 0.80657,-1.265 0.20175,-0.0548 0.54397,-0.0161 0.70801,0.08 0.19084,0.11184 0.36168,0.31157 0.47988,0.56103 0.0924,0.19498 0.10061,0.23905 0.0996,0.53342 -9.2e-4,0.26075 -0.0154,0.35693 -0.0774,0.51318 -0.0983,0.24779 -0.37332,0.53013 -0.57393,0.5892 -0.21085,0.0621 -0.54663,0.0743 -0.71704,0.0261 z"
         id="path40"
         transform="scale(0.26458333)" /></g></g></svg>
