<?xml version="1.0" encoding="UTF-8" standalone="no"?>
<!-- Created with Inkscape (http://www.inkscape.org/) -->

<svg
   width="66.176132mm"
   height="66.176682mm"
   viewBox="0 0 66.176132 66.176682"
   version="1.1"
   id="svg1"
   xml:space="preserve"
   inkscape:version="1.4.2 (f4327f4, 2025-05-13)"
   sodipodi:docname="Google_Calendar_icon.svg"
   xmlns:inkscape="http://www.inkscape.org/namespaces/inkscape"
   xmlns:sodipodi="http://sodipodi.sourceforge.net/DTD/sodipodi-0.dtd"
   xmlns="http://www.w3.org/2000/svg"
   xmlns:svg="http://www.w3.org/2000/svg"><sodipodi:namedview
     id="namedview1"
     pagecolor="#ffffff"
     bordercolor="#000000"
     borderopacity="0.25"
     inkscape:showpageshadow="2"
     inkscape:pageopacity="0.0"
     inkscape:pagecheckerboard="0"
     inkscape:deskcolor="#d1d1d1"
     inkscape:document-units="mm"
     inkscape:zoom="0.68862935"
     inkscape:cx="396.43968"
     inkscape:cy="561.25984"
     inkscape:window-width="1920"
     inkscape:window-height="991"
     inkscape:window-x="2391"
     inkscape:window-y="-9"
     inkscape:window-maximized="1"
     inkscape:current-layer="layer1"><inkscape:page
       x="0"
       y="0"
       width="66.176132"
       height="66.176682"
       id="page2"
       margin="0"
       bleed="0" /></sodipodi:namedview><defs
     id="defs1" /><g
     inkscape:label="שכבה 1"
     inkscape:groupmode="layer"
     id="layer1"
     transform="translate(-26.753155,-91.482353)"><path
       style="fill:#000000"
       d="m 30.200635,157.36466 c -1.211783,-0.48362 -2.4437,-1.62185 -2.941311,-2.71762 -0.427393,-0.94115 -0.495346,-1.78075 -0.500368,-6.18228 l -0.0058,-5.09323 h 7.14375 7.14375 v 7.14375 7.14375 l -5.093229,-0.0168 c -2.801276,-0.009 -5.387327,-0.13415 -5.746781,-0.2776 z m 12.341216,0.11988 c -0.09806,-0.0981 -0.17829,-3.61126 -0.17829,-7.80711 v -7.62882 h 17.466496 17.466492 l -0.0701,7.73907 -0.0701,7.73906 -17.218065,0.068 c -9.469935,0.0374 -17.298294,-0.0122 -17.396353,-0.11025 z m 36.069628,-7.8953 v -6.21771 h 6.41403 6.41404 l -6.21349,6.21771 c -3.41742,3.41974 -6.30373,6.21771 -6.41403,6.21771 -0.11031,0 -0.20055,-2.79797 -0.20055,-6.21771 z m -51.737085,-7.87087 c -0.07142,-0.18611 -0.09815,-10.77429 -0.0594,-23.52929 l 0.07045,-23.190908 0.797537,-1.14718 c 0.479049,-0.68906 1.271487,-1.38086 1.984375,-1.73236 l 1.186838,-0.5852 23.15104,0.056 23.151042,0.056 0.0701,7.73906 0.0701,7.739058 h 7.80312 7.80311 l -0.068,17.39636 -0.068,17.39635 h -7.67292 -7.67292 l -0.068,-17.39635 -0.068,-17.39636 H 59.826061 42.367366 l -0.06805,17.39636 -0.06805,17.39635 -7.613513,0.0702 c -5.989889,0.0552 -7.641205,-0.002 -7.743363,-0.26817 z m 24.782195,-6.54945 c -1.239468,-0.29264 -2.922431,-1.53308 -3.777854,-2.78449 -1.148681,-1.68042 -1.135196,-1.94957 0.126368,-2.52235 1.510399,-0.68575 1.914424,-0.64082 2.285133,0.25415 0.174876,0.42219 0.615631,1.04727 0.979456,1.38906 0.561408,0.52742 0.935888,0.62145 2.474895,0.62145 1.644073,0 1.888823,-0.0723 2.621222,-0.77395 0.954158,-0.91414 1.271675,-2.22318 0.809748,-3.33837 -0.511317,-1.23443 -1.619059,-1.86193 -3.639601,-2.06171 l -1.779687,-0.17597 v -1.32292 -1.32292 l 1.322917,-0.14405 c 1.516933,-0.16518 2.903476,-0.8212 3.299448,-1.56108 0.436264,-0.81517 0.316096,-2.26903 -0.24668,-2.98448 -0.285509,-0.36297 -1.039531,-0.80565 -1.675604,-0.98374 -1.506216,-0.42171 -2.780025,0.071 -3.595741,1.39086 l -0.579466,0.9376 -1.312958,-0.54564 c -1.672329,-0.69499 -1.685558,-1.15775 -0.0821,-2.87198 2.106005,-2.25149 5.078956,-2.66516 8.228348,-1.14494 1.856424,0.8961 2.80041,2.43645 2.798456,4.56636 -0.0016,1.74171 -0.512514,2.87641 -1.73523,3.8538 -0.764839,0.61138 -0.813078,0.72206 -0.41608,0.95465 1.938712,1.13588 2.861066,2.68487 2.852421,4.79034 -0.01739,4.23456 -4.165865,6.91162 -8.957411,5.78032 z m 16.37155,-8.0712 v -7.8324 l -1.498276,1.0729 c -0.824054,0.59009 -1.591212,1.07289 -1.704795,1.07289 -0.29325,0 -1.554429,-2.17528 -1.403121,-2.4201 0.06902,-0.11167 1.381205,-1.1075 2.915972,-2.21295 2.50033,-1.80092 2.89919,-2.00155 3.83598,-1.92957 l 1.04549,0.0803 -4.5e-4,9.92188 -4.6e-4,9.92187 -1.59517,0.0788 -1.59517,0.0788 z m 10.58334,-28.456198 v -7.15917 l 5.22552,0.0816 c 6.00509,0.0937 6.68034,0.28437 8.11,2.28955 l 0.81969,1.14966 0.0813,5.398778 0.0813,5.39879 h -7.15888 -7.15888 z"
       id="path1" /></g></svg>
