<svg xmlns="http://www.w3.org/2000/svg" xmlns:xlink="http://www.w3.org/1999/xlink" width="1119" zoomAndPan="magnify" viewBox="0 0 839.25 227.999995" height="304" preserveAspectRatio="xMidYMid meet" version="1.0"><defs><g/><clipPath id="5b52a52723"><path d="M 23 72 L 123 72 L 123 196.980469 L 23 196.980469 Z M 23 72 " clip-rule="nonzero"/></clipPath><clipPath id="7c426b11c1"><path d="M 83 31 L 133.378906 31 L 133.378906 72 L 83 72 Z M 83 31 " clip-rule="nonzero"/></clipPath><clipPath id="be75e1a71e"><rect x="0" width="588" y="0" height="158"/></clipPath></defs><g clip-path="url(#5b52a52723)"><path fill="#ffffff" d="M 70.511719 127.328125 C 70.332031 126.972656 68.820312 123.503906 68.820312 123.503906 L 69 123.148438 C 69 123.238281 69.175781 123.238281 69.175781 123.238281 L 69.355469 123.59375 C 72.289062 126.972656 78.777344 130.972656 82.773438 132.925781 C 87.753906 135.324219 94.152344 137.8125 99.660156 139.503906 L 100.460938 157.722656 C 100.285156 157.632812 99.574219 156.65625 99.484375 156.390625 C 95.929688 151.144531 95.839844 149.636719 95.21875 143.058594 C 92.730469 141.8125 89.441406 141.015625 86.773438 140.035156 C 80.375 137.457031 76.996094 135.503906 72.910156 130.792969 C 72.199219 130.082031 71.042969 128.394531 70.511719 127.328125 Z M 90.0625 83.15625 C 90.863281 81.820312 91.484375 80.84375 92.460938 79.511719 C 93.441406 78.265625 94.238281 77.023438 95.128906 75.867188 C 83.398438 69.46875 68.554688 71.867188 57.445312 77.554688 C 37.535156 87.867188 28.382812 110.171875 33.804688 132.480469 C 34.871094 137.015625 35.582031 137.636719 36.914062 141.015625 C 37.980469 143.859375 33.539062 156.566406 32.203125 159.234375 C 29.269531 165.453125 27.136719 168.121094 23.40625 173.363281 C 25.449219 173.363281 51.757812 162.699219 56.378906 161.632812 L 58.066406 143.414062 C 54.777344 140.035156 55.402344 141.8125 52.113281 142.703125 C 43.402344 144.835938 34.78125 135.949219 39.582031 125.992188 C 40.292969 124.570312 38.601562 124.394531 39.3125 123.328125 C 42.601562 117.90625 50.066406 114.882812 55.84375 112.484375 C 64.464844 108.75 73.265625 105.464844 81.796875 101.730469 C 88.195312 98.976562 95.128906 96.398438 101.261719 93.640625 C 102.859375 93.019531 106.328125 91.332031 107.660156 90.976562 L 108.636719 96.753906 C 103.484375 98.796875 97.796875 100.664062 92.460938 102.441406 L 59.933594 113.550781 C 56.554688 114.796875 51.136719 116.484375 48.289062 118.261719 L 45.359375 120.839844 C 48.289062 120.570312 49.625 119.683594 52.824219 120.839844 C 54.867188 121.550781 56.824219 122.882812 57.890625 124.214844 C 62.777344 130.347656 59.757812 134.4375 59.398438 137.101562 C 60.378906 137.636719 60.910156 138.347656 61.890625 138.882812 C 63.398438 139.769531 63.222656 140.035156 62.957031 142.082031 L 61.265625 166.789062 L 66.777344 170.875 C 71.042969 174.164062 79.042969 179.230469 83.484375 182.429688 C 90.152344 187.140625 97.972656 191.671875 104.90625 196.296875 L 106.59375 197.273438 C 105.972656 186.695312 105.882812 175.855469 105.527344 165.277344 C 105.171875 154.878906 104.636719 144.390625 104.28125 133.816406 C 95.75 130.617188 82.597656 129.726562 79.132812 117.640625 L 83.484375 117.550781 C 89.886719 117.285156 98.949219 119.238281 104.636719 122.171875 C 107.570312 123.59375 108.992188 123.949219 109.261719 125.90625 C 109.617188 128.394531 110.058594 130.972656 110.414062 133.460938 C 110.769531 136.304688 110.683594 139.148438 112.105469 140.214844 L 117.171875 143.503906 C 119.035156 144.570312 120.546875 145.902344 122.234375 146.789062 C 122.148438 144.480469 121.082031 140.125 120.546875 137.636719 C 120.015625 134.4375 119.480469 131.414062 118.859375 128.394531 C 118.414062 125.992188 117.96875 125.992188 119.304688 124.570312 C 122.503906 120.570312 122.414062 122.972656 120.371094 112.484375 L 113.4375 76.132812 C 111.925781 76.757812 110.769531 77.554688 109.347656 78.535156 C 105.882812 80.933594 102.148438 83.15625 98.328125 85.289062 C 95.929688 86.621094 93.527344 87.953125 91.128906 89.199219 C 87.753906 90.976562 84.285156 92.664062 80.910156 94.355469 C 77.976562 95.777344 49.445312 109.816406 47.578125 111.417969 C 49.980469 105.109375 54.511719 99.953125 59.132812 96.042969 C 64.464844 91.6875 67.132812 91.953125 69.621094 90.53125 C 64.554688 88.664062 54.691406 91.953125 49.800781 95.066406 C 49.089844 95.597656 48.113281 96.308594 47.402344 96.753906 L 44.914062 98.707031 L 48.824219 93.640625 C 59.132812 83.511719 76.199219 81.289062 89.53125 86.445312 C 89.886719 86.53125 90.152344 86.621094 90.417969 86.800781 L 93.796875 85.109375 C 92.375 84.488281 90.773438 83.867188 90.0625 83.15625 Z M 44.914062 120.660156 C 44.914062 120.839844 45.003906 120.839844 45.089844 120.839844 Z M 44.914062 120.660156 " fill-opacity="1" fill-rule="evenodd"/></g><path fill="#ffffff" d="M 25.183594 58.179688 C 26.25 58.714844 27.136719 59.515625 28.203125 60.402344 C 28.738281 60.757812 29.09375 61.292969 29.539062 61.648438 C 36.648438 67.335938 44.648438 79.511719 45.269531 80.042969 C 47.136719 78.265625 49.710938 76.402344 52.289062 74.890625 C 54.421875 73.46875 59.933594 71.066406 60.378906 70.800781 C 58.246094 62.890625 57.710938 57.558594 59.042969 49.292969 L 59.398438 47.960938 C 59.757812 52.226562 59.757812 55.691406 60.824219 59.691406 C 61.265625 62.003906 62.957031 68.046875 64.109375 69.46875 C 69.355469 68.046875 73.53125 66.980469 79.664062 67.246094 C 80.375 60.226562 82.6875 52.9375 85.175781 47.25 C 87.398438 42.359375 90.0625 37.382812 93.261719 33.117188 C 93.796875 32.40625 94.417969 31.960938 94.59375 31.074219 C 68.910156 30.628906 50.421875 36.761719 31.402344 51.960938 C 30.160156 52.9375 29.449219 53.914062 28.203125 54.890625 C 27.136719 55.691406 25.804688 56.9375 25.183594 58.179688 Z M 25.183594 58.179688 " fill-opacity="1" fill-rule="evenodd"/><g clip-path="url(#7c426b11c1)"><path fill="#ffffff" d="M 83.664062 67.425781 C 89.351562 68.136719 93.882812 69.734375 98.328125 71.867188 C 99.21875 71.15625 101.351562 68.402344 101.972656 67.691406 L 105.882812 63.335938 C 109.703125 58.980469 114.058594 55.335938 118.503906 51.78125 L 123.214844 48.226562 C 125.523438 46.539062 128.191406 45.027344 130.769531 43.515625 C 132.101562 42.714844 132.8125 42.539062 133.523438 41.828125 L 125.167969 38.09375 C 122.148438 36.9375 119.390625 36.050781 116.28125 35.074219 C 112.992188 34.007812 105.261719 32.050781 101.792969 31.695312 C 100.550781 31.605469 99.839844 33.027344 98.59375 34.363281 L 93.527344 41.382812 C 89.796875 47.160156 83.484375 61.292969 83.664062 67.425781 Z M 83.664062 67.425781 " fill-opacity="1" fill-rule="evenodd"/></g><path fill="#ffffff" d="M 3.941406 96.664062 C 10.875 96.308594 18.074219 97.285156 24.5625 99.242188 C 26.695312 99.773438 28.738281 100.664062 30.605469 101.109375 C 31.9375 95.777344 38.335938 86.621094 42.246094 82.800781 C 41.359375 80.488281 34.605469 72.757812 33.09375 71.335938 C 30.515625 69.023438 27.492188 66.269531 24.472656 64.3125 C 23.671875 63.691406 22.425781 62.625 21.359375 62.269531 C 20.382812 62.980469 16.652344 68.3125 15.761719 69.644531 C 11.316406 76.132812 4.917969 88.933594 3.941406 96.664062 Z M 3.941406 96.664062 " fill-opacity="1" fill-rule="evenodd"/><path fill="#ffffff" d="M 0.207031 172.476562 C 0.652344 172.210938 2.785156 170.433594 3.230469 170.078125 C 9.183594 164.03125 10.605469 163.054688 15.40625 155.945312 C 21.09375 147.589844 21.804688 143.769531 26.070312 135.058594 C 27.9375 131.058594 28.828125 132.125 28.203125 129.636719 C 27.226562 125.726562 27.050781 121.90625 27.136719 117.816406 C 22.871094 118.171875 16.828125 120.839844 13.363281 122.527344 C 8.296875 124.925781 2.875 129.371094 2.253906 129.726562 C 2.253906 132.660156 3.140625 137.371094 3.320312 140.570312 C 3.675781 144.480469 3.675781 148.300781 3.585938 152.210938 C 3.320312 161.542969 2.339844 164.300781 0.207031 172.476562 Z M 0.207031 172.476562 " fill-opacity="1" fill-rule="evenodd"/><path fill="#ffffff" d="M 1.628906 122.351562 L 1.898438 123.683594 L 2.964844 123.238281 C 4.917969 120.839844 15.761719 116.574219 20.382812 115.417969 C 22.695312 114.796875 25.09375 114.527344 27.40625 113.90625 C 27.761719 110.441406 28.472656 107.863281 29.269531 104.839844 C 22.78125 101.820312 10.875 101.019531 2.875 101.640625 C 2.339844 105.019531 1.898438 108.128906 1.628906 111.59375 C 1.542969 115.152344 1.808594 118.972656 1.628906 122.351562 Z M 1.628906 122.351562 " fill-opacity="1" fill-rule="evenodd"/><path fill="#ffffff" d="M 120.8125 194.960938 C 121.167969 192.5625 121.703125 160.035156 121.703125 154.878906 C 121.792969 151.5 122.414062 152.125 117.703125 149.101562 C 117.082031 148.746094 116.460938 148.214844 115.75 147.855469 C 116.105469 153.011719 116.015625 167.5 116.105469 173.71875 C 116.105469 175.410156 115.835938 178.609375 116.460938 179.941406 C 118.414062 184.832031 120.371094 193.894531 120.8125 194.960938 Z M 120.8125 194.960938 " fill-opacity="1" fill-rule="evenodd"/><path fill="#ffffff" d="M 43.582031 133.28125 C 45.445312 140.746094 57.179688 138.167969 55.402344 129.992188 C 53.710938 122.617188 41.269531 124.925781 43.582031 133.28125 Z M 43.582031 133.28125 " fill-opacity="1" fill-rule="evenodd"/><path fill="#7e8382" d="M 2.964844 123.238281 L 1.898438 123.683594 L 1.628906 122.351562 L 1.628906 124.039062 Z M 2.964844 123.238281 " fill-opacity="1" fill-rule="evenodd"/><g transform="matrix(1, 0, 0, 1, 158, 35)"><g clip-path="url(#be75e1a71e)"><g fill="#ffffff" fill-opacity="1"><g transform="translate(1.839648, 120.347506)"><g><path d="M 4.0625 0 L 4.0625 -91.828125 L 32.078125 -91.828125 L 39.765625 -35.8125 L 47.46875 -91.828125 L 75.6875 -91.828125 L 75.6875 0 L 58.90625 0 L 58.90625 -66.171875 L 48.328125 0 L 31.859375 0 L 20.640625 -66.171875 L 20.640625 0 Z M 4.0625 0 "/></g></g></g><g fill="#ffffff" fill-opacity="1"><g transform="translate(81.582852, 120.347506)"><g><path d="M 25.984375 0.859375 C 18.566406 0.859375 12.929688 -1.398438 9.078125 -5.921875 C 5.234375 -10.453125 3.3125 -16.816406 3.3125 -25.015625 L 3.3125 -68.734375 C 3.3125 -76.648438 5.234375 -82.617188 9.078125 -86.640625 C 12.929688 -90.671875 18.566406 -92.6875 25.984375 -92.6875 C 33.390625 -92.6875 39.015625 -90.671875 42.859375 -86.640625 C 46.710938 -82.617188 48.640625 -76.648438 48.640625 -68.734375 L 48.640625 -25.015625 C 48.640625 -16.742188 46.710938 -10.363281 42.859375 -5.875 C 39.015625 -1.382812 33.390625 0.859375 25.984375 0.859375 Z M 25.984375 -16.03125 C 27.617188 -16.03125 28.71875 -16.742188 29.28125 -18.171875 C 29.851562 -19.597656 30.140625 -21.59375 30.140625 -24.15625 L 30.140625 -69.0625 C 30.140625 -71.0625 29.875 -72.679688 29.34375 -73.921875 C 28.8125 -75.171875 27.722656 -75.796875 26.078125 -75.796875 C 23.015625 -75.796875 21.484375 -73.476562 21.484375 -68.84375 L 21.484375 -24.046875 C 21.484375 -21.410156 21.800781 -19.414062 22.4375 -18.0625 C 23.082031 -16.707031 24.265625 -16.03125 25.984375 -16.03125 Z M 25.984375 -16.03125 "/></g></g></g><g fill="#ffffff" fill-opacity="1"><g transform="translate(133.533529, 120.347506)"><g><path d="M 4.0625 0 L 4.0625 -91.828125 L 22.984375 -91.828125 L 31.4375 -47.890625 L 31.4375 -91.828125 L 49.171875 -91.828125 L 49.171875 0 L 31.21875 0 L 22.015625 -45.96875 L 22.015625 0 Z M 4.0625 0 "/></g></g></g><g fill="#ffffff" fill-opacity="1"><g transform="translate(186.766927, 120.347506)"><g><path d="M 4.0625 0 L 4.0625 -91.828125 L 40.84375 -91.828125 L 40.84375 -74.09375 L 22.765625 -74.09375 L 22.765625 -56.234375 L 40.09375 -56.234375 L 40.09375 -38.90625 L 22.765625 -38.90625 L 22.765625 -17.859375 L 42.015625 -17.859375 L 42.015625 0 Z M 4.0625 0 "/></g></g></g><g fill="#ffffff" fill-opacity="1"><g transform="translate(230.807425, 120.347506)"><g><path d="M 15.1875 0 L 15.1875 -30.25 L 0.53125 -91.828125 L 18.703125 -91.828125 L 23.84375 -60.71875 L 28.96875 -91.828125 L 47.140625 -91.828125 L 32.5 -30.25 L 32.5 0 Z M 15.1875 0 "/></g></g></g><g fill="#ffffff" fill-opacity="1"><g transform="translate(278.482326, 120.347506)"><g/></g></g><g fill="#ffffff" fill-opacity="1"><g transform="translate(303.495606, 120.347506)"><g><path d="M 4.0625 0 L 4.0625 -91.828125 L 22.234375 -91.828125 L 22.234375 -55.0625 L 30.78125 -91.828125 L 49.28125 -91.828125 L 39.015625 -49.8125 L 51.421875 0 L 32.390625 0 L 22.34375 -44.46875 L 22.34375 0 Z M 4.0625 0 "/></g></g></g><g fill="#ffffff" fill-opacity="1"><g transform="translate(353.949755, 120.347506)"><g><path d="M 4.0625 0 L 4.0625 -91.828125 L 40.84375 -91.828125 L 40.84375 -74.09375 L 22.765625 -74.09375 L 22.765625 -56.234375 L 40.09375 -56.234375 L 40.09375 -38.90625 L 22.765625 -38.90625 L 22.765625 -17.859375 L 42.015625 -17.859375 L 42.015625 0 Z M 4.0625 0 "/></g></g></g><g fill="#ffffff" fill-opacity="1"><g transform="translate(397.990254, 120.347506)"><g><path d="M 4.0625 0 L 4.0625 -91.828125 L 40.84375 -91.828125 L 40.84375 -74.09375 L 22.765625 -74.09375 L 22.765625 -56.234375 L 40.09375 -56.234375 L 40.09375 -38.90625 L 22.765625 -38.90625 L 22.765625 -17.859375 L 42.015625 -17.859375 L 42.015625 0 Z M 4.0625 0 "/></g></g></g><g fill="#ffffff" fill-opacity="1"><g transform="translate(442.030752, 120.347506)"><g><path d="M 4.0625 -91.828125 L 28.328125 -91.828125 C 35.671875 -91.828125 40.910156 -89.457031 44.046875 -84.71875 C 47.179688 -79.976562 48.75 -73.050781 48.75 -63.9375 C 48.75 -54.8125 47.359375 -47.929688 44.578125 -43.296875 C 41.796875 -38.660156 36.804688 -36.34375 29.609375 -36.34375 L 22.125 -36.34375 L 22.125 0 L 4.0625 0 Z M 23.203125 -52.921875 C 25.410156 -52.921875 27.03125 -53.328125 28.0625 -54.140625 C 29.09375 -54.960938 29.769531 -56.140625 30.09375 -57.671875 C 30.414062 -59.203125 30.578125 -61.394531 30.578125 -64.25 C 30.578125 -68.101562 30.148438 -70.882812 29.296875 -72.59375 C 28.441406 -74.300781 26.726562 -75.15625 24.15625 -75.15625 L 22.125 -75.15625 L 22.125 -52.921875 Z M 23.203125 -52.921875 "/></g></g></g><g fill="#ffffff" fill-opacity="1"><g transform="translate(492.484926, 120.347506)"><g><path d="M 4.0625 0 L 4.0625 -91.828125 L 40.84375 -91.828125 L 40.84375 -74.09375 L 22.765625 -74.09375 L 22.765625 -56.234375 L 40.09375 -56.234375 L 40.09375 -38.90625 L 22.765625 -38.90625 L 22.765625 -17.859375 L 42.015625 -17.859375 L 42.015625 0 Z M 4.0625 0 "/></g></g></g><g fill="#ffffff" fill-opacity="1"><g transform="translate(536.525425, 120.347506)"><g><path d="M 4.0625 -91.828125 L 32.28125 -91.828125 C 36.769531 -91.828125 40.242188 -90.8125 42.703125 -88.78125 C 45.160156 -86.75 46.816406 -83.898438 47.671875 -80.234375 C 48.535156 -76.566406 48.96875 -71.878906 48.96875 -66.171875 C 48.96875 -60.972656 48.289062 -56.910156 46.9375 -53.984375 C 45.582031 -51.066406 43.226562 -49.035156 39.875 -47.890625 C 42.65625 -47.316406 44.664062 -45.925781 45.90625 -43.71875 C 47.15625 -41.507812 47.78125 -38.519531 47.78125 -34.75 L 47.578125 0 L 29.609375 0 L 29.609375 -35.921875 C 29.609375 -38.484375 29.109375 -40.117188 28.109375 -40.828125 C 27.117188 -41.546875 25.304688 -41.90625 22.671875 -41.90625 L 22.671875 0 L 4.0625 0 Z M 27.15625 -57.84375 C 29.71875 -57.84375 31 -60.617188 31 -66.171875 C 31 -68.597656 30.890625 -70.414062 30.671875 -71.625 C 30.460938 -72.832031 30.070312 -73.664062 29.5 -74.125 C 28.9375 -74.59375 28.117188 -74.828125 27.046875 -74.828125 L 22.765625 -74.828125 L 22.765625 -57.84375 Z M 27.15625 -57.84375 "/></g></g></g></g></g></svg>