<svg xmlns="http://www.w3.org/2000/svg" xmlns:xlink="http://www.w3.org/1999/xlink" width="821" zoomAndPan="magnify" viewBox="0 0 615.75 164.249993" height="219" preserveAspectRatio="xMidYMid meet" version="1.0"><defs><g/><clipPath id="3d87f654e8"><path d="M 18 37 L 89 37 L 89 127.578125 L 18 127.578125 Z M 18 37 " clip-rule="nonzero"/></clipPath><clipPath id="ec04205a4c"><path d="M 19 8.125 L 70 8.125 L 70 44 L 19 44 Z M 19 8.125 " clip-rule="nonzero"/></clipPath><clipPath id="f5f68c714e"><path d="M 61 8.125 L 96.839844 8.125 L 96.839844 38 L 61 38 Z M 61 8.125 " clip-rule="nonzero"/></clipPath><clipPath id="cedd2c4b34"><path d="M 1.273438 70 L 22 70 L 22 110 L 1.273438 110 Z M 1.273438 70 " clip-rule="nonzero"/></clipPath><clipPath id="506af65f4f"><rect x="0" width="422" y="0" height="113"/></clipPath></defs><g clip-path="url(#3d87f654e8)"><path fill="#a9282c" d="M 51.777344 77.382812 C 51.648438 77.128906 50.566406 74.648438 50.566406 74.648438 L 50.695312 74.390625 C 50.695312 74.457031 50.824219 74.457031 50.824219 74.457031 L 50.949219 74.710938 C 53.050781 77.128906 57.699219 79.996094 60.5625 81.394531 C 64.128906 83.113281 68.710938 84.894531 72.65625 86.105469 L 73.230469 99.15625 C 73.105469 99.09375 72.59375 98.390625 72.53125 98.199219 C 69.984375 94.445312 69.921875 93.363281 69.476562 88.652344 C 67.691406 87.761719 65.335938 87.1875 63.425781 86.488281 C 58.84375 84.640625 56.425781 83.242188 53.496094 79.867188 C 52.988281 79.359375 52.160156 78.148438 51.777344 77.382812 Z M 65.78125 45.746094 C 66.355469 44.789062 66.800781 44.089844 67.5 43.136719 C 68.203125 42.246094 68.773438 41.351562 69.410156 40.527344 C 61.007812 35.941406 50.378906 37.660156 42.417969 41.734375 C 28.160156 49.121094 21.601562 65.097656 25.488281 81.078125 C 26.25 84.324219 26.757812 84.769531 27.714844 87.1875 C 28.476562 89.226562 25.296875 98.328125 24.339844 100.238281 C 22.238281 104.695312 20.710938 106.605469 18.039062 110.359375 C 19.503906 110.359375 38.34375 102.722656 41.65625 101.957031 L 42.867188 88.90625 C 40.511719 86.488281 40.957031 87.761719 38.601562 88.398438 C 32.363281 89.925781 26.1875 83.558594 29.625 76.429688 C 30.132812 75.410156 28.925781 75.285156 29.433594 74.519531 C 31.789062 70.636719 37.136719 68.472656 41.273438 66.753906 C 47.449219 64.078125 53.75 61.722656 59.863281 59.050781 C 64.445312 57.078125 69.410156 55.230469 73.804688 53.257812 C 74.949219 52.8125 77.433594 51.601562 78.386719 51.347656 L 79.085938 55.484375 C 75.394531 56.949219 71.320312 58.285156 67.5 59.558594 L 44.203125 67.515625 C 41.78125 68.410156 37.898438 69.617188 35.863281 70.890625 L 33.761719 72.738281 C 35.863281 72.546875 36.816406 71.910156 39.109375 72.738281 C 40.574219 73.246094 41.972656 74.203125 42.738281 75.15625 C 46.238281 79.546875 44.074219 82.476562 43.820312 84.386719 C 44.519531 84.769531 44.902344 85.277344 45.601562 85.660156 C 46.683594 86.296875 46.558594 86.488281 46.367188 87.953125 L 45.15625 105.648438 L 49.105469 108.578125 C 52.160156 110.933594 57.890625 114.5625 61.070312 116.851562 C 65.847656 120.226562 71.449219 123.472656 76.414062 126.785156 L 77.625 127.484375 C 77.179688 119.910156 77.113281 112.140625 76.859375 104.566406 C 76.605469 97.117188 76.222656 89.605469 75.96875 82.03125 C 69.855469 79.738281 60.433594 79.101562 57.953125 70.445312 L 61.070312 70.382812 C 65.65625 70.191406 72.148438 71.589844 76.222656 73.691406 C 78.324219 74.710938 79.34375 74.964844 79.53125 76.367188 C 79.789062 78.148438 80.105469 79.996094 80.359375 81.777344 C 80.617188 83.8125 80.550781 85.851562 81.570312 86.613281 L 85.199219 88.96875 C 86.535156 89.734375 87.617188 90.6875 88.828125 91.324219 C 88.765625 89.671875 88 86.550781 87.617188 84.769531 C 87.234375 82.476562 86.855469 80.3125 86.410156 78.148438 C 86.089844 76.429688 85.773438 76.429688 86.726562 75.410156 C 89.019531 72.546875 88.953125 74.265625 87.492188 66.753906 L 82.523438 40.714844 C 81.441406 41.164062 80.617188 41.734375 79.597656 42.433594 C 77.113281 44.152344 74.441406 45.746094 71.703125 47.273438 C 69.984375 48.226562 68.265625 49.183594 66.546875 50.074219 C 64.128906 51.347656 61.644531 52.558594 59.226562 53.765625 C 57.125 54.785156 36.691406 64.84375 35.355469 65.988281 C 37.074219 61.46875 40.320312 57.777344 43.628906 54.976562 C 47.449219 51.855469 49.359375 52.046875 51.140625 51.03125 C 47.511719 49.691406 40.445312 52.046875 36.945312 54.277344 C 36.4375 54.65625 35.734375 55.167969 35.226562 55.484375 L 33.445312 56.886719 L 36.246094 53.257812 C 43.628906 46 55.851562 44.410156 65.402344 48.101562 C 65.65625 48.164062 65.847656 48.226562 66.039062 48.355469 L 68.457031 47.144531 C 67.4375 46.699219 66.292969 46.253906 65.78125 45.746094 Z M 33.445312 72.609375 C 33.445312 72.738281 33.507812 72.738281 33.570312 72.738281 Z M 33.445312 72.609375 " fill-opacity="1" fill-rule="evenodd"/></g><g clip-path="url(#ec04205a4c)"><path fill="#ba1229" d="M 19.3125 27.859375 C 20.074219 28.238281 20.710938 28.8125 21.476562 29.449219 C 21.859375 29.703125 22.113281 30.085938 22.429688 30.339844 C 27.523438 34.414062 33.253906 43.136719 33.699219 43.519531 C 35.035156 42.246094 36.882812 40.90625 38.726562 39.824219 C 40.253906 38.808594 44.203125 37.089844 44.519531 36.898438 C 42.992188 31.230469 42.609375 27.410156 43.566406 21.492188 L 43.820312 20.535156 C 44.074219 23.59375 44.074219 26.074219 44.839844 28.941406 C 45.15625 30.59375 46.367188 34.921875 47.195312 35.941406 C 50.949219 34.921875 53.941406 34.160156 58.335938 34.351562 C 58.84375 29.320312 60.5 24.101562 62.28125 20.027344 C 63.871094 16.527344 65.78125 12.960938 68.074219 9.90625 C 68.457031 9.394531 68.902344 9.078125 69.03125 8.441406 C 50.632812 8.125 37.390625 12.515625 23.769531 23.402344 C 22.875 24.101562 22.367188 24.800781 21.476562 25.503906 C 20.710938 26.074219 19.757812 26.964844 19.3125 27.859375 Z M 19.3125 27.859375 " fill-opacity="1" fill-rule="evenodd"/></g><g clip-path="url(#f5f68c714e)"><path fill="#ba1229" d="M 61.199219 34.476562 C 65.273438 34.988281 68.519531 36.132812 71.703125 37.660156 C 72.339844 37.152344 73.867188 35.179688 74.3125 34.667969 L 77.113281 31.550781 C 79.851562 28.429688 82.972656 25.820312 86.152344 23.273438 L 89.527344 20.726562 C 91.183594 19.519531 93.09375 18.4375 94.9375 17.355469 C 95.894531 16.78125 96.402344 16.652344 96.914062 16.144531 L 90.929688 13.46875 C 88.765625 12.644531 86.789062 12.007812 84.5625 11.304688 C 82.207031 10.542969 76.667969 9.140625 74.1875 8.886719 C 73.292969 8.824219 72.785156 9.84375 71.894531 10.796875 L 68.265625 15.824219 C 65.589844 19.964844 61.070312 30.085938 61.199219 34.476562 Z M 61.199219 34.476562 " fill-opacity="1" fill-rule="evenodd"/></g><path fill="#ba1229" d="M 4.097656 55.421875 C 9.0625 55.167969 14.21875 55.867188 18.867188 57.269531 C 20.394531 57.648438 21.859375 58.285156 23.195312 58.605469 C 24.148438 54.785156 28.734375 48.226562 31.535156 45.492188 C 30.898438 43.835938 26.058594 38.296875 24.976562 37.277344 C 23.132812 35.625 20.964844 33.652344 18.800781 32.25 C 18.230469 31.804688 17.339844 31.039062 16.574219 30.785156 C 15.875 31.296875 13.199219 35.113281 12.5625 36.070312 C 9.378906 40.714844 4.796875 49.882812 4.097656 55.421875 Z M 4.097656 55.421875 " fill-opacity="1" fill-rule="evenodd"/><g clip-path="url(#cedd2c4b34)"><path fill="#ba1229" d="M 1.421875 109.722656 C 1.742188 109.53125 3.269531 108.257812 3.585938 108.003906 C 7.851562 103.675781 8.871094 102.976562 12.308594 97.882812 C 16.382812 91.898438 16.890625 89.160156 19.949219 82.921875 C 21.285156 80.058594 21.921875 80.820312 21.476562 79.039062 C 20.777344 76.238281 20.648438 73.5 20.710938 70.574219 C 17.65625 70.828125 13.328125 72.738281 10.84375 73.945312 C 7.214844 75.664062 3.332031 78.847656 2.886719 79.101562 C 2.886719 81.203125 3.523438 84.578125 3.652344 86.871094 C 3.90625 89.671875 3.90625 92.40625 3.84375 95.210938 C 3.652344 101.894531 2.949219 103.867188 1.421875 109.722656 Z M 1.421875 109.722656 " fill-opacity="1" fill-rule="evenodd"/></g><path fill="#ba1229" d="M 2.441406 73.820312 L 2.632812 74.773438 L 3.398438 74.457031 C 4.796875 72.738281 12.5625 69.679688 15.875 68.855469 C 17.527344 68.410156 19.246094 68.21875 20.902344 67.773438 C 21.15625 65.289062 21.667969 63.441406 22.238281 61.277344 C 17.59375 59.113281 9.0625 58.542969 3.332031 58.988281 C 2.949219 61.40625 2.632812 63.632812 2.441406 66.117188 C 2.378906 68.664062 2.570312 71.402344 2.441406 73.820312 Z M 2.441406 73.820312 " fill-opacity="1" fill-rule="evenodd"/><path fill="#a9282c" d="M 87.808594 125.828125 C 88.0625 124.109375 88.445312 100.8125 88.445312 97.117188 C 88.507812 94.699219 88.953125 95.144531 85.582031 92.980469 C 85.136719 92.726562 84.691406 92.34375 84.179688 92.089844 C 84.433594 95.78125 84.371094 106.160156 84.433594 110.613281 C 84.433594 111.824219 84.242188 114.117188 84.691406 115.070312 C 86.089844 118.570312 87.492188 125.066406 87.808594 125.828125 Z M 87.808594 125.828125 " fill-opacity="1" fill-rule="evenodd"/><path fill="#ba1229" d="M 32.488281 81.648438 C 33.824219 86.996094 42.230469 85.152344 40.957031 79.292969 C 39.746094 74.011719 30.832031 75.664062 32.488281 81.648438 Z M 32.488281 81.648438 " fill-opacity="1" fill-rule="evenodd"/><path fill="#7e8382" d="M 3.398438 74.457031 L 2.632812 74.773438 L 2.441406 73.820312 L 2.441406 75.027344 Z M 3.398438 74.457031 " fill-opacity="1" fill-rule="evenodd"/><g transform="matrix(1, 0, 0, 1, 126, 25)"><g clip-path="url(#506af65f4f)"><g fill="#a9282c" fill-opacity="1"><g transform="translate(1.715494, 86.200082)"><g><path d="M 2.90625 0 L 2.90625 -65.78125 L 22.96875 -65.78125 L 28.484375 -25.65625 L 34 -65.78125 L 54.21875 -65.78125 L 54.21875 0 L 42.1875 0 L 42.1875 -47.40625 L 34.609375 0 L 22.8125 0 L 14.78125 -47.40625 L 14.78125 0 Z M 2.90625 0 "/></g></g></g><g fill="#a9282c" fill-opacity="1"><g transform="translate(58.834306, 86.200082)"><g><path d="M 18.609375 0.609375 C 13.296875 0.609375 9.257812 -1.007812 6.5 -4.25 C 3.75 -7.488281 2.375 -12.046875 2.375 -17.921875 L 2.375 -49.234375 C 2.375 -54.898438 3.75 -59.175781 6.5 -62.0625 C 9.257812 -64.945312 13.296875 -66.390625 18.609375 -66.390625 C 23.921875 -66.390625 27.953125 -64.945312 30.703125 -62.0625 C 33.460938 -59.175781 34.84375 -54.898438 34.84375 -49.234375 L 34.84375 -17.921875 C 34.84375 -11.992188 33.460938 -7.421875 30.703125 -4.203125 C 27.953125 -0.992188 23.921875 0.609375 18.609375 0.609375 Z M 18.609375 -11.484375 C 19.785156 -11.484375 20.578125 -11.992188 20.984375 -13.015625 C 21.390625 -14.035156 21.59375 -15.46875 21.59375 -17.3125 L 21.59375 -49.46875 C 21.59375 -50.894531 21.398438 -52.054688 21.015625 -52.953125 C 20.640625 -53.847656 19.863281 -54.296875 18.6875 -54.296875 C 16.488281 -54.296875 15.390625 -52.632812 15.390625 -49.3125 L 15.390625 -17.234375 C 15.390625 -15.335938 15.617188 -13.90625 16.078125 -12.9375 C 16.535156 -11.96875 17.378906 -11.484375 18.609375 -11.484375 Z M 18.609375 -11.484375 "/></g></g></g><g fill="#a9282c" fill-opacity="1"><g transform="translate(96.045764, 86.200082)"><g><path d="M 2.90625 0 L 2.90625 -65.78125 L 16.46875 -65.78125 L 22.515625 -34.3125 L 22.515625 -65.78125 L 35.21875 -65.78125 L 35.21875 0 L 22.359375 0 L 15.78125 -32.921875 L 15.78125 0 Z M 2.90625 0 "/></g></g></g><g fill="#a9282c" fill-opacity="1"><g transform="translate(134.176016, 86.200082)"><g><path d="M 2.90625 0 L 2.90625 -65.78125 L 29.25 -65.78125 L 29.25 -53.0625 L 16.3125 -53.0625 L 16.3125 -40.28125 L 28.71875 -40.28125 L 28.71875 -27.875 L 16.3125 -27.875 L 16.3125 -12.78125 L 30.09375 -12.78125 L 30.09375 0 Z M 2.90625 0 "/></g></g></g><g fill="#a9282c" fill-opacity="1"><g transform="translate(165.721537, 86.200082)"><g><path d="M 10.875 0 L 10.875 -21.671875 L 0.390625 -65.78125 L 13.40625 -65.78125 L 17.078125 -43.5 L 20.75 -65.78125 L 33.765625 -65.78125 L 23.28125 -21.671875 L 23.28125 0 Z M 10.875 0 "/></g></g></g><g fill="#a9282c" fill-opacity="1"><g transform="translate(199.870325, 86.200082)"><g/></g></g><g fill="#a9282c" fill-opacity="1"><g transform="translate(217.786947, 86.200082)"><g><path d="M 2.90625 0 L 2.90625 -65.78125 L 15.921875 -65.78125 L 15.921875 -39.4375 L 22.046875 -65.78125 L 35.296875 -65.78125 L 27.953125 -35.6875 L 36.828125 0 L 23.203125 0 L 16 -31.859375 L 16 0 Z M 2.90625 0 "/></g></g></g><g fill="#a9282c" fill-opacity="1"><g transform="translate(253.926466, 86.200082)"><g><path d="M 2.90625 0 L 2.90625 -65.78125 L 29.25 -65.78125 L 29.25 -53.0625 L 16.3125 -53.0625 L 16.3125 -40.28125 L 28.71875 -40.28125 L 28.71875 -27.875 L 16.3125 -27.875 L 16.3125 -12.78125 L 30.09375 -12.78125 L 30.09375 0 Z M 2.90625 0 "/></g></g></g><g fill="#a9282c" fill-opacity="1"><g transform="translate(285.471987, 86.200082)"><g><path d="M 2.90625 0 L 2.90625 -65.78125 L 29.25 -65.78125 L 29.25 -53.0625 L 16.3125 -53.0625 L 16.3125 -40.28125 L 28.71875 -40.28125 L 28.71875 -27.875 L 16.3125 -27.875 L 16.3125 -12.78125 L 30.09375 -12.78125 L 30.09375 0 Z M 2.90625 0 "/></g></g></g><g fill="#a9282c" fill-opacity="1"><g transform="translate(317.017508, 86.200082)"><g><path d="M 2.90625 -65.78125 L 20.296875 -65.78125 C 25.554688 -65.78125 29.304688 -64.082031 31.546875 -60.6875 C 33.796875 -57.289062 34.921875 -52.328125 34.921875 -45.796875 C 34.921875 -39.253906 33.925781 -34.320312 31.9375 -31 C 29.945312 -27.6875 26.375 -26.03125 21.21875 -26.03125 L 15.859375 -26.03125 L 15.859375 0 L 2.90625 0 Z M 16.625 -37.90625 C 18.195312 -37.90625 19.351562 -38.195312 20.09375 -38.78125 C 20.84375 -39.375 21.332031 -40.21875 21.5625 -41.3125 C 21.789062 -42.40625 21.90625 -43.976562 21.90625 -46.03125 C 21.90625 -48.78125 21.597656 -50.765625 20.984375 -51.984375 C 20.367188 -53.210938 19.144531 -53.828125 17.3125 -53.828125 L 15.859375 -53.828125 L 15.859375 -37.90625 Z M 16.625 -37.90625 "/></g></g></g><g fill="#a9282c" fill-opacity="1"><g transform="translate(353.157046, 86.200082)"><g><path d="M 2.90625 0 L 2.90625 -65.78125 L 29.25 -65.78125 L 29.25 -53.0625 L 16.3125 -53.0625 L 16.3125 -40.28125 L 28.71875 -40.28125 L 28.71875 -27.875 L 16.3125 -27.875 L 16.3125 -12.78125 L 30.09375 -12.78125 L 30.09375 0 Z M 2.90625 0 "/></g></g></g><g fill="#a9282c" fill-opacity="1"><g transform="translate(384.702567, 86.200082)"><g><path d="M 2.90625 -65.78125 L 23.125 -65.78125 C 26.34375 -65.78125 28.832031 -65.050781 30.59375 -63.59375 C 32.351562 -62.144531 33.539062 -60.101562 34.15625 -57.46875 C 34.769531 -54.84375 35.078125 -51.488281 35.078125 -47.40625 C 35.078125 -43.675781 34.585938 -40.765625 33.609375 -38.671875 C 32.640625 -36.578125 30.957031 -35.125 28.5625 -34.3125 C 30.550781 -33.894531 31.992188 -32.894531 32.890625 -31.3125 C 33.785156 -29.738281 34.234375 -27.597656 34.234375 -24.890625 L 34.078125 0 L 21.21875 0 L 21.21875 -25.734375 C 21.21875 -27.566406 20.859375 -28.738281 20.140625 -29.25 C 19.421875 -29.757812 18.117188 -30.015625 16.234375 -30.015625 L 16.234375 0 L 2.90625 0 Z M 19.453125 -41.421875 C 21.285156 -41.421875 22.203125 -43.414062 22.203125 -47.40625 C 22.203125 -49.132812 22.125 -50.429688 21.96875 -51.296875 C 21.820312 -52.171875 21.539062 -52.773438 21.125 -53.109375 C 20.71875 -53.441406 20.132812 -53.609375 19.375 -53.609375 L 16.3125 -53.609375 L 16.3125 -41.421875 Z M 19.453125 -41.421875 "/></g></g></g></g></g></svg>